<?xml version="1.0" encoding="utf-8"?>
<!-- Svg Vector Icons : http://www.onlinewebfonts.com/icon -->
<!DOCTYPE svg PUBLIC "-//W3C//DTD SVG 1.1//EN" "http://www.w3.org/Graphics/SVG/1.1/DTD/svg11.dtd">
<svg version="1.1" xmlns="http://www.w3.org/2000/svg" xmlns:xlink="http://www.w3.org/1999/xlink" x="0px" y="0px" viewBox="0 0 1000 1000" enable-background="new 0 0 1000 1000" xml:space="preserve">
<metadata> Svg Vector Icons : http://www.onlinewebfonts.com/icon </metadata>
<g><g transform="translate(0.000000,512.000000) scale(0.100000,-0.100000)"><path d="M5622.6,4996.1c-823.3-80.4-1679.1-193.4-2475.6-323.6c-566.7-93.8-530.4-78.5-821.4-321.7c-193.4-164.7-570.6-547.6-691.2-704.6c-137.9-183.8-270-419.3-319.7-576.3c-111-350.4-220.2-1723.2-260.4-3281.7c-45.9-1682.9,42.1-3166.8,225.9-3884.8c111-428.9,214.4-559.1,520.8-649.1c166.6-49.8,1336.4-44,1773,7.7c677.8,80.4,1527.9,224,3042.4,517c1376.6,264.2,1847.6,337,2060.1,315.9c70.8-7.7,114.9-1.9,135.9,13.4c224,180,195.3,1194.7-128.3,4687c-254.7,2751.3-273.8,2996.4-285.3,3519.1c-5.7,298.7-13.4,360-42.1,411.7c-55.5,93.8-183.8,180-356.1,237.4l-157,53.6l-976.5,1.9C6152.9,5022.9,5817.9,5015.2,5622.6,4996.1z M7684.6,4808.4c214.5-34.5,386.8-90,446.1-145.5c40.2-36.4,42.1-61.3,53.6-427c17.2-553.3,26.8-658.6,317.9-3814c91.9-978.4,162.7-1851.4,204.8-2508.2c32.6-517,42.1-1413,13.4-1522.1l-17.2-67l-197.2-13.4c-270-17.2-616.5-72.7-1376.6-216.3c-354.2-67-942-178.1-1305.8-247c-1679.1-317.8-2573.3-436.5-3302.7-440.4c-716.1-3.8-882.6,63.2-993.7,396.3c-298.7,898-360,4038-124.4,6379.6c47.9,476.7,72.7,658.6,95.7,702.7c26.8,49.8,93.8,59.3,291,47.9c197.2-11.5,461.4-74.7,940.1-224c350.4-111,396.3-111,421.2-9.6c9.6,40.2,0,70.8-36.4,124.5c-90,130.2-176.2,503.5-275.7,1194.7l-53.6,365.7l40.2,13.4c53.6,17.2,922.9,151.3,1457,224c742.9,101.5,1638.9,189.5,2221,220.2C6786.7,4858.2,7502.7,4837.2,7684.6,4808.4z M2626.2,3964.1c45.9-327.4,139.8-815.6,181.9-955.4c15.3-51.7,26.8-95.7,24.9-97.6c-3.8-3.8-130.2,32.6-283.4,78.5c-363.8,109.1-624.2,162.7-817.6,166.6l-157,3.8l49.8,86.2c101.5,176.1,229.8,340.8,436.5,553.3c218.3,227.8,515,492.1,520.8,465.3C2584,4257,2605.1,4123,2626.2,3964.1z"/></g></g>
</svg>