<?xml version="1.0" encoding="utf-8"?>
<!-- Svg Vector Icons : http://www.onlinewebfonts.com/icon -->
<!DOCTYPE svg PUBLIC "-//W3C//DTD SVG 1.1//EN" "http://www.w3.org/Graphics/SVG/1.1/DTD/svg11.dtd">
<svg version="1.1" xmlns="http://www.w3.org/2000/svg" xmlns:xlink="http://www.w3.org/1999/xlink" x="0px" y="0px" viewBox="0 0 1000 1000" enable-background="new 0 0 1000 1000" xml:space="preserve">
<metadata> Svg Vector Icons : http://www.onlinewebfonts.com/icon </metadata>
<g><g transform="translate(0.000000,511.000000) scale(0.100000,-0.100000)"><path d="M1051.1,4979.3c-58.7-132.6-104.6-382.5-104.6-586.5c0-655.4,316.2-1384.8,951.2-2188.1c112.2-142.8,640.1-696.2,1173.1-1231.8c530.5-533,964-981.8,958.9-994.6c-5.1-10.2-196.4-201.5-423.3-423.3l-410.6-402.9l-214.2,68.9c-191.3,63.8-247.4,71.4-581.5,71.4c-313.7,2.6-400.4-7.7-571.2-56.1C1148-960.1,627.8-1472.8,411-2158.7c-86.7-270.3-99.5-744.7-28.1-1037.9c102-428.4,280.5-734.5,612.1-1045.6c997.1-938.5,2621.6-629.9,3228.6,612.1c145.4,293.3,196.4,527.9,196.4,884.9c0,354.5-51,591.7-198.9,900.2l-91.8,191.3l436.1,436.1l436.1,436.1l438.6-438.6l438.7-438.6l-81.6-147.9c-178.5-336.6-260.1-803.3-209.1-1180.8c114.8-849.2,686-1504.6,1517.4-1736.7c280.5-79.1,752.3-79.1,1040.5-2.6c576.4,155.6,1101.7,601.9,1344,1137.4c137.7,300.9,186.2,568.7,170.9,933.4c-12.7,362.1-63.8,558.5-224.4,867.1c-201.5,390.2-502.4,683.5-902.8,879.8c-344.3,170.9-494.7,204-930.8,201.5c-334.1,0-390.2-7.7-584-71.4l-214.2-71.4l-415.7,415.7L5973-19.1l897.7,905.3c494.8,499.8,994.6,1022.6,1111.9,1162.9c563.6,675.8,905.3,1308.3,1027.7,1897.4c40.8,191.3,48.4,306,38.3,525.3c-12.7,270.3-66.3,502.4-125,538.1c-15.3,10.2-902.8-859.4-1973.8-1930.5L5001.4,1131L3042.8,3089.6C1086.8,5045.6,1084.2,5048.2,1051.1,4979.3z M5195.2,312.4c112.2-74,155.5-265.2,86.7-390.2c-38.3-76.5-175.9-155.6-265.2-155.6c-99.5,0-232.1,86.7-270.3,178.5C4631.6,220.6,4942.7,475.6,5195.2,312.4z M2818.4-1811.9c632.5-311.1,788-1119.5,311.1-1629.6c-492.2-527.9-1346.5-400.4-1665.3,244.8c-94.4,186.2-96.9,204-96.9,461.6c0,239.7,7.6,285.6,68.9,415.7c74,160.7,257.6,372.3,395.3,456.5c170.9,107.1,359.6,150.5,596.8,142.8C2616.9-1727.8,2673-1740.5,2818.4-1811.9z M8018.3-1786.4c206.6-81.6,428.4-290.7,535.5-510c76.5-158.1,81.6-186.2,81.6-436.1c0-247.4-5.1-280.5-81.6-438.6c-201.4-423.3-655.4-665.6-1096.6-584c-765.1,140.3-1117,1009.9-660.5,1632.1c107.1,145.4,316.2,295.8,504.9,364.7C7482.7-1694.6,7809.1-1707.4,8018.3-1786.4z"/></g></g>
</svg>